<?xml version="1.0" standalone="no"?><svg xmlns="http://www.w3.org/2000/svg" viewBox="0 0 1440 320"><path fill="#D7DBDD" fill-opacity="1" d="M0,96L9.6,90.7C19.2,85,38,75,58,80C76.8,85,96,107,115,112C134.4,117,154,107,173,133.3C192,160,211,224,230,240C249.6,256,269,224,288,202.7C307.2,181,326,171,346,186.7C364.8,203,384,245,403,229.3C422.4,213,442,139,461,128C480,117,499,171,518,170.7C537.6,171,557,117,576,90.7C595.2,64,614,64,634,85.3C652.8,107,672,149,691,160C710.4,171,730,149,749,144C768,139,787,149,806,170.7C825.6,192,845,224,864,213.3C883.2,203,902,149,922,149.3C940.8,149,960,203,979,224C998.4,245,1018,235,1037,218.7C1056,203,1075,181,1094,160C1113.6,139,1133,117,1152,106.7C1171.2,96,1190,96,1210,85.3C1228.8,75,1248,53,1267,53.3C1286.4,53,1306,75,1325,90.7C1344,107,1363,117,1382,112C1401.6,107,1421,85,1430,74.7L1440,64L1440,0L1430.4,0C1420.8,0,1402,0,1382,0C1363.2,0,1344,0,1325,0C1305.6,0,1286,0,1267,0C1248,0,1229,0,1210,0C1190.4,0,1171,0,1152,0C1132.8,0,1114,0,1094,0C1075.2,0,1056,0,1037,0C1017.6,0,998,0,979,0C960,0,941,0,922,0C902.4,0,883,0,864,0C844.8,0,826,0,806,0C787.2,0,768,0,749,0C729.6,0,710,0,691,0C672,0,653,0,634,0C614.4,0,595,0,576,0C556.8,0,538,0,518,0C499.2,0,480,0,461,0C441.6,0,422,0,403,0C384,0,365,0,346,0C326.4,0,307,0,288,0C268.8,0,250,0,230,0C211.2,0,192,0,173,0C153.6,0,134,0,115,0C96,0,77,0,58,0C38.4,0,19,0,10,0L0,0Z"></path></svg>